<mxfile host="app.diagrams.net" modified="2024-01-29T03:46:25.458Z" agent="Mozilla/5.0 (Windows NT 10.0; Win64; x64) AppleWebKit/537.36 (KHTML, like Gecko) Chrome/120.0.0.0 Safari/537.36" version="23.0.2" etag="iwkMxpOP2Y-2GdXmAx8X" type="github">
  <diagram name="Halaman-1" id="CEByzoldI9jqK3RdBxqi">
    <mxGraphModel>
      <root>
        <mxCell id="0" />
        <mxCell id="1" parent="0" />
      </root>
    </mxGraphModel>
  </diagram>
</mxfile>
